<svg width="180" height="180" viewBox="0 0 180 180" fill="none" xmlns="http://www.w3.org/2000/svg">
<rect width="180" height="180" rx="85.2869" fill="#BDFF00"/>
<path d="M54.4976 29.7841L120.777 29.7841" stroke="black" stroke-width="13.2228"/>
<rect x="0.568579" y="0.568579" width="4.65783" height="4.65783" transform="matrix(-4.37114e-08 -1 -1 4.37114e-08 57.3888 39.7431)" fill="#BDFF00" stroke="black" stroke-width="1.13716"/>
<rect x="0.568579" y="0.568579" width="4.65783" height="4.65783" transform="matrix(-4.37114e-08 -1 -1 4.37114e-08 57.3888 25.6221)" fill="#BDFF00" stroke="black" stroke-width="1.13716"/>
<path d="M54.4976 82.8204H120.777" stroke="black" stroke-width="13.2228"/>
<path d="M54.4976 107.239H120.777" stroke="black" stroke-width="13.2228"/>
<path d="M54.4976 149.099H120.777" stroke="black" stroke-width="13.2228"/>
<path d="M123.578 118.601L53.8611 133.604" stroke="black" stroke-width="13.2228"/>
<rect x="118.068" y="152.686" width="3.52068" height="3.52068" transform="rotate(-90 118.068 152.686)" fill="black"/>
<rect x="118.068" y="159.73" width="3.52068" height="3.52068" transform="rotate(-90 118.068 159.73)" fill="black"/>
<rect x="114.551" y="152.686" width="3.52068" height="3.52068" transform="rotate(-90 114.551 152.686)" fill="#BDFF00"/>
<rect x="114.551" y="159.73" width="3.52068" height="3.52068" transform="rotate(-90 114.551 159.73)" fill="#BDFF00"/>
<rect x="121.593" y="149.165" width="3.52068" height="3.52068" transform="rotate(-90 121.593 149.165)" fill="black"/>
<rect x="121.593" y="156.207" width="3.52068" height="3.52068" transform="rotate(-90 121.593 156.207)" fill="black"/>
<rect x="118.068" y="149.165" width="3.52068" height="3.52068" transform="rotate(-90 118.068 149.165)" fill="#BDFF00"/>
<rect x="118.068" y="156.207" width="3.52068" height="3.52068" transform="rotate(-90 118.068 156.207)" fill="#BDFF00"/>
<rect x="118.068" y="145.644" width="3.52068" height="3.52068" transform="rotate(-90 118.068 145.644)" fill="black"/>
<rect x="118.068" y="86.3836" width="3.52068" height="3.52068" transform="rotate(-90 118.068 86.3836)" fill="black"/>
<rect x="118.068" y="93.424" width="3.52068" height="3.52068" transform="rotate(-90 118.068 93.424)" fill="black"/>
<rect x="114.551" y="86.3836" width="3.52068" height="3.52068" transform="rotate(-90 114.551 86.3836)" fill="#BDFF00"/>
<rect x="114.551" y="93.424" width="3.52068" height="3.52068" transform="rotate(-90 114.551 93.424)" fill="#BDFF00"/>
<rect x="121.593" y="82.8589" width="3.52068" height="3.52068" transform="rotate(-90 121.593 82.8589)" fill="black"/>
<rect x="121.593" y="89.903" width="3.52068" height="3.52068" transform="rotate(-90 121.593 89.903)" fill="black"/>
<rect x="118.068" y="82.8589" width="3.52068" height="3.52068" transform="rotate(-90 118.068 82.8589)" fill="#BDFF00"/>
<rect x="118.068" y="89.903" width="3.52068" height="3.52068" transform="rotate(-90 118.068 89.903)" fill="#BDFF00"/>
<rect x="118.068" y="79.3378" width="3.52068" height="3.52068" transform="rotate(-90 118.068 79.3378)" fill="black"/>
<rect width="3.52068" height="3.52068" transform="matrix(-4.37114e-08 1 1 4.37114e-08 117.25 26.2628)" fill="black"/>
<rect width="3.52068" height="3.52068" transform="matrix(-4.37114e-08 1 1 4.37114e-08 117.25 19.2223)" fill="black"/>
<rect width="3.52068" height="3.52068" transform="matrix(-4.37114e-08 1 1 4.37114e-08 113.734 26.2628)" fill="#BDFF00"/>
<rect width="3.52068" height="3.52068" transform="matrix(-4.37114e-08 1 1 4.37114e-08 113.732 19.2223)" fill="#BDFF00"/>
<rect width="3.52068" height="3.52068" transform="matrix(-4.37114e-08 1 1 4.37114e-08 120.775 29.7842)" fill="black"/>
<rect width="3.52068" height="3.52068" transform="matrix(-4.37114e-08 1 1 4.37114e-08 120.775 22.7417)" fill="black"/>
<rect width="3.52068" height="3.52068" transform="matrix(-4.37114e-08 1 1 4.37114e-08 117.25 29.7842)" fill="#BDFF00"/>
<rect width="3.52068" height="3.52068" transform="matrix(-4.37114e-08 1 1 4.37114e-08 117.25 22.7417)" fill="#BDFF00"/>
<rect width="3.52068" height="3.52068" transform="matrix(-4.37114e-08 1 1 4.37114e-08 117.25 33.3089)" fill="black"/>
<rect x="121.589" y="107.254" width="3.52068" height="3.52068" transform="rotate(90 121.589 107.254)" fill="black"/>
<rect x="121.589" y="100.214" width="3.52068" height="3.52068" transform="rotate(90 121.589 100.214)" fill="black"/>
<rect x="125.112" y="107.254" width="3.52068" height="3.52068" transform="rotate(90 125.112 107.254)" fill="#BDFF00"/>
<rect x="125.112" y="114.3" width="3.52068" height="3.52068" transform="rotate(90 125.112 114.3)" fill="#BDFF00"/>
<rect x="125.112" y="121.34" width="3.52068" height="3.52068" transform="rotate(90 125.112 121.34)" fill="#BDFF00"/>
<rect x="125.114" y="100.212" width="3.52068" height="3.52068" transform="rotate(90 125.114 100.212)" fill="#BDFF00"/>
<rect x="118.065" y="110.775" width="3.52068" height="3.52068" transform="rotate(90 118.065 110.775)" fill="black"/>
<rect x="118.065" y="103.735" width="3.52068" height="3.52068" transform="rotate(90 118.065 103.735)" fill="black"/>
<rect x="121.589" y="110.775" width="3.52068" height="3.52068" transform="rotate(90 121.589 110.775)" fill="#BDFF00"/>
<rect x="121.589" y="103.735" width="3.52068" height="3.52068" transform="rotate(90 121.589 103.735)" fill="#BDFF00"/>
<rect x="121.589" y="114.3" width="3.52068" height="3.52068" transform="rotate(90 121.589 114.3)" fill="black"/>
<rect x="125.112" y="110.775" width="3.52068" height="3.52068" transform="rotate(90 125.112 110.775)" fill="black"/>
<rect x="125.112" y="117.821" width="3.52068" height="3.52068" transform="rotate(90 125.112 117.821)" fill="black"/>
<rect x="125.112" y="124.862" width="3.52068" height="3.52068" transform="rotate(90 125.112 124.862)" fill="black"/>
<rect x="121.589" y="121.34" width="3.52068" height="3.52068" transform="rotate(90 121.589 121.34)" fill="black"/>
<path d="M119.777 39.5031L112.449 73.0703" stroke="black" stroke-width="13.2228"/>
<rect x="127.813" y="47.3912" width="3.52068" height="3.52068" transform="rotate(90 127.813 47.3912)" fill="black"/>
<rect x="127.813" y="40.3473" width="3.52068" height="3.52068" transform="rotate(90 127.813 40.3473)" fill="black"/>
<rect x="124.29" y="54.4337" width="3.52068" height="3.52068" transform="rotate(90 124.29 54.4337)" fill="#BDFF00"/>
<rect x="124.29" y="61.4778" width="3.52068" height="3.52068" transform="rotate(90 124.29 61.4778)" fill="#BDFF00"/>
<rect x="120.772" y="64.9951" width="3.52068" height="3.52068" transform="rotate(90 120.772 64.9951)" fill="#BDFF00"/>
<rect x="120.772" y="72.0392" width="3.52068" height="3.52068" transform="rotate(90 120.772 72.0392)" fill="#BDFF00"/>
<rect x="127.813" y="36.8262" width="3.52068" height="3.52068" transform="rotate(90 127.813 36.8262)" fill="#BDFF00"/>
<rect x="124.29" y="40.3473" width="3.52068" height="3.52068" transform="rotate(90 124.29 40.3473)" fill="#BDFF00"/>
<rect x="120.772" y="36.8262" width="3.52068" height="3.52068" transform="rotate(90 120.772 36.8262)" fill="#BDFF00"/>
<rect x="124.297" y="50.9123" width="3.52068" height="3.52068" transform="rotate(90 124.297 50.9123)" fill="black"/>
<rect x="124.297" y="43.8682" width="3.52068" height="3.52068" transform="rotate(90 124.297 43.8682)" fill="black"/>
<rect x="124.297" y="36.8262" width="3.52068" height="3.52068" transform="rotate(90 124.297 36.8262)" fill="black"/>
<rect x="117.248" y="36.8262" width="3.52068" height="3.52068" transform="rotate(90 117.248 36.8262)" fill="black"/>
<rect x="120.772" y="40.3473" width="3.52068" height="3.52068" transform="rotate(90 120.772 40.3473)" fill="black"/>
<rect x="127.813" y="50.9123" width="3.52068" height="3.52068" transform="rotate(90 127.813 50.9123)" fill="#BDFF00"/>
<rect x="127.813" y="43.8682" width="3.52068" height="3.52068" transform="rotate(90 127.813 43.8682)" fill="#BDFF00"/>
<rect x="127.813" y="54.4337" width="3.52068" height="3.52068" transform="rotate(90 127.813 54.4337)" fill="black"/>
<rect x="131.338" y="50.9123" width="3.52068" height="3.52068" transform="rotate(90 131.338 50.9123)" fill="black"/>
<rect x="124.29" y="57.9548" width="3.52068" height="3.52068" transform="rotate(90 124.29 57.9548)" fill="black"/>
<rect x="127.813" y="61.4778" width="3.52068" height="3.52068" transform="rotate(90 127.813 61.4778)" fill="black"/>
<rect x="124.29" y="64.9951" width="3.52068" height="3.52068" transform="rotate(90 124.29 64.9951)" fill="black"/>
<rect x="120.772" y="61.4778" width="3.52068" height="3.52068" transform="rotate(90 120.772 61.4778)" fill="black"/>
<rect x="120.772" y="68.5162" width="3.52068" height="3.52068" transform="rotate(90 120.772 68.5162)" fill="black"/>
<rect x="117.248" y="72.0355" width="3.52068" height="3.52068" transform="rotate(90 117.248 72.0355)" fill="black"/>
<rect x="0.568579" y="0.568579" width="4.65783" height="4.65783" transform="matrix(-4.37114e-08 -1 -1 4.37114e-08 57.3888 78.7172)" fill="#BDFF00" stroke="black" stroke-width="1.13716"/>
<rect x="0.568579" y="0.568579" width="4.65783" height="4.65783" transform="matrix(-4.37114e-08 -1 -1 4.37114e-08 57.3888 92.7175)" fill="#BDFF00" stroke="black" stroke-width="1.13716"/>
<rect x="0.568579" y="0.568579" width="4.65783" height="4.65783" transform="matrix(-4.37114e-08 -1 -1 4.37114e-08 57.3888 103.108)" fill="#BDFF00" stroke="black" stroke-width="1.13716"/>
<rect x="0.568579" y="0.568579" width="4.65783" height="4.65783" transform="matrix(-4.37114e-08 -1 -1 4.37114e-08 57.3888 117.195)" fill="#BDFF00" stroke="black" stroke-width="1.13716"/>
<rect x="0.568579" y="0.568579" width="4.65783" height="4.65783" transform="matrix(-4.37114e-08 -1 -1 4.37114e-08 54.9996 130.033)" fill="#BDFF00" stroke="black" stroke-width="1.13716"/>
<rect x="0.568579" y="0.568579" width="4.65783" height="4.65783" transform="matrix(-4.37114e-08 -1 -1 4.37114e-08 57.3888 144.251)" fill="#BDFF00" stroke="black" stroke-width="1.13716"/>
<rect x="0.568579" y="0.568579" width="4.65783" height="4.65783" transform="matrix(-4.37114e-08 -1 -1 4.37114e-08 57.3888 158.754)" fill="#BDFF00" stroke="black" stroke-width="1.13716"/>
<rect x="0.568579" y="0.568579" width="4.65783" height="4.65783" transform="matrix(-4.37114e-08 -1 -1 4.37114e-08 108.739 74.2074)" fill="#BDFF00" stroke="black" stroke-width="1.13716"/>
<rect x="0.568579" y="0.568579" width="4.65783" height="4.65783" transform="matrix(-4.37114e-08 -1 -1 4.37114e-08 116.624 39.7431)" fill="#BDFF00" stroke="black" stroke-width="1.13716"/>
</svg>
