<svg width="128" height="128" viewBox="0 0 128 128" fill="none" xmlns="http://www.w3.org/2000/svg">
<path fill-rule="evenodd" clip-rule="evenodd" d="M55.9759 84.4582C55.9759 78.6858 55.9759 72.9134 55.9759 67.0833C55.9759 66.1092 55.6977 65.8061 54.6829 65.8422C52.8036 65.9143 50.9243 65.8422 49.0375 65.8422C48.2858 65.8422 47.9926 65.6546 48.0001 64.8826C48.0352 61.2652 48.0352 57.6575 48.0001 54.0593C48.0001 53.3378 48.2106 53.1358 48.9398 53.1502C50.8642 53.1935 52.7961 53.0997 54.713 53.1502C55.8255 53.2079 56.0586 52.8255 56.036 51.8298C55.9659 49.0831 55.9659 46.334 56.036 43.5825C56.0426 40.2707 57.1282 37.0439 59.1406 34.3538C61.7792 30.8976 65.5227 29.303 69.8526 29.1298C74.1825 28.9567 78.7455 29.0433 83.1957 29C83.8196 29 84 29.2092 84 29.7865C84 33.4375 84 37.091 84 40.7468C84 41.3962 83.7895 41.5982 83.1205 41.591C80.9856 41.591 78.8432 41.591 76.7008 41.591C73.8593 41.591 72.1905 43.0341 71.9725 45.7111C71.8296 47.8757 71.9349 50.0403 71.8823 52.241C71.8823 53.0131 72.3408 52.9626 72.8745 52.9626C76.1295 52.9626 79.3844 52.9626 82.6469 52.9626C83.6016 52.9626 83.9173 53.1574 83.8045 54.1243C83.3986 57.732 83.0528 61.3902 82.7221 65.0341C82.6469 65.8566 82.256 66.0082 81.4892 66.001C78.9259 65.9577 76.355 66.001 73.7916 66.001C71.9499 66.001 72.1228 65.7412 72.1228 67.545C72.1228 78.8805 72.1228 90.2161 72.1228 101.552C72.1228 102.749 71.8071 103.045 70.5743 102.995C66.1692 102.915 61.7641 102.908 57.3515 102.995C56.1112 102.995 55.9082 102.612 55.9157 101.552C55.9684 95.8441 55.9157 90.1367 55.9157 84.4293" fill="white"/>
</svg>
