<svg width="128" height="128" viewBox="0 0 128 128" fill="none" xmlns="http://www.w3.org/2000/svg">
<path d="M63.9894 34.488C73.5979 34.488 74.7358 34.488 78.5356 34.6917C80.8191 34.7209 83.0807 35.1413 85.2222 35.9345C86.7845 36.5113 88.198 37.4302 89.3591 38.6238C90.5534 39.787 91.4725 41.2025 92.0492 42.7665C92.8463 44.9039 93.267 47.1632 93.2924 49.4441C93.468 53.2429 93.5031 54.3593 93.5031 63.993C93.5031 73.6267 93.5031 74.7361 93.2924 78.5348C93.2668 80.818 92.8462 83.0796 92.0492 85.2194C91.4722 86.7813 90.5531 88.1944 89.3591 89.3552C88.198 90.5488 86.7845 91.4676 85.2222 92.0444C83.0807 92.8376 80.8191 93.258 78.5356 93.2873C74.7358 93.4558 73.6189 93.4979 63.9894 93.4979C54.3599 93.4979 53.2362 93.4558 49.4434 93.2873C47.1598 93.2588 44.898 92.8384 42.7568 92.0444C41.193 91.4664 39.7775 90.5478 38.6128 89.3552C37.4266 88.199 36.5125 86.7935 35.9368 85.2405C35.1432 83.1 34.725 80.8386 34.7006 78.5559C34.525 74.7572 34.4899 73.6407 34.4899 64.0141C34.4899 54.3874 34.525 53.2639 34.7006 49.4652C34.7248 47.1848 35.143 44.9257 35.9368 42.7876C36.5135 41.2236 37.4326 39.8081 38.6269 38.6448C39.7916 37.4522 41.2071 36.5336 42.7708 35.9556C44.9121 35.1616 47.1738 34.7412 49.4574 34.7127C53.2502 34.5442 54.374 34.5091 64.0035 34.5091M64.0035 28.0211C54.2265 28.0211 52.9973 28.0632 49.1554 28.2387C46.1693 28.2978 43.2149 28.8629 40.4179 29.9099C38.0155 30.8131 35.8391 32.2293 34.0404 34.0597C32.2095 35.8579 30.7929 38.0336 29.8894 40.4353C28.8455 43.2325 28.2804 46.1855 28.2177 49.1703C28.0421 53.0111 28 54.2399 28 64.0141C28 73.7882 28.0421 75.01 28.2177 78.8508C28.2804 81.8356 28.8455 84.7885 29.8894 87.5857C30.7929 89.9874 32.2095 92.1632 34.0404 93.9614C35.8391 95.7918 38.0155 97.2079 40.4179 98.1111C43.2149 99.1581 46.1693 99.7232 49.1554 99.7823C52.9973 99.9578 54.2265 100 64.0035 100C73.7805 100 75.0026 99.9578 78.8446 99.7823C81.8307 99.724 84.7853 99.1589 87.5821 98.1111C89.9845 97.2079 92.1609 95.7918 93.9596 93.9614C95.7905 92.1632 97.2071 89.9874 98.1107 87.5857C99.1614 84.7905 99.7267 81.8364 99.7823 78.8508C99.9579 75.01 100 73.7882 100 64.0141C100 54.2399 99.9579 53.0111 99.7823 49.1703C99.7267 46.1847 99.1614 43.2305 98.1107 40.4353C97.2071 38.0336 95.7905 35.8579 93.9596 34.0597C92.1609 32.2293 89.9845 30.8131 87.5821 29.9099C84.7853 28.8621 81.8307 28.297 78.8446 28.2387C74.9886 28.0421 73.7664 28 63.9894 28L64.0035 28.0211ZM64.0035 45.533C59.1006 45.533 54.3986 47.4802 50.9317 50.946C47.4648 54.4119 45.5171 59.1126 45.5171 64.0141C45.5171 68.9155 47.4648 73.6162 50.9317 77.0821C54.3986 80.548 59.1006 82.495 64.0035 82.495C68.9058 82.4931 73.6068 80.5455 77.0733 77.08C80.5398 73.6146 82.4881 68.9149 82.4899 64.0141C82.4927 61.5841 82.0161 59.1775 81.0874 56.932C80.1588 54.6864 78.7962 52.6459 77.0779 50.9274C75.3595 49.2089 73.3189 47.846 71.0731 46.9168C68.8272 45.9875 66.4201 45.5102 63.9894 45.512L64.0035 45.533ZM64.0035 76.007C60.8212 76.007 57.7691 74.7437 55.5182 72.4948C53.2673 70.2459 52.0019 67.1954 52 64.0141C52 60.8315 53.2646 57.7792 55.5157 55.5288C57.7668 53.2783 60.82 52.0141 64.0035 52.0141C67.1858 52.0159 70.2372 53.281 72.4867 55.5313C74.7363 57.7815 76 60.8327 76 64.0141C75.9945 67.1936 74.7262 70.2408 72.474 72.4857C70.2217 74.7307 67.1699 75.9896 63.9894 75.9859L64.0035 76.007ZM87.5399 44.8028C87.5381 45.9476 87.0824 47.0448 86.2727 47.8542C85.4631 48.6637 84.3654 49.1193 83.2203 49.1212C82.0747 49.1212 80.9761 48.6661 80.166 47.8563C79.3559 47.0465 78.9008 45.9481 78.9008 44.8028C78.8999 44.2352 79.0109 43.6729 79.2276 43.1481C79.4443 42.6234 79.7623 42.1465 80.1635 41.7448C80.5647 41.343 81.0412 41.0243 81.5658 40.8069C82.0903 40.5894 82.6525 40.4775 83.2203 40.4775C84.3605 40.483 85.4525 40.9383 86.2588 41.7443C87.065 42.5503 87.5203 43.6419 87.5259 44.7818L87.5399 44.8028Z" fill="white"/>
</svg>
