<svg width="128" height="128" viewBox="0 0 128 128" fill="none" xmlns="http://www.w3.org/2000/svg">
<path d="M64.4968 33C45.9951 33 31 44.858 31 59.4879C31 68.9432 37.2705 77.2458 46.6989 81.9281C46.1888 83.7026 43.4055 93.3457 43.2957 94.1034C43.2957 94.1034 43.2247 94.6733 43.5928 94.8935C43.7163 94.9549 43.8509 94.9906 43.9885 94.9984C44.1261 95.0062 44.2639 94.9859 44.3935 94.9388C45.4462 94.7899 56.6182 86.9213 58.5491 85.5612C60.5197 85.838 62.507 85.9765 64.4968 85.9757C82.9985 85.9757 98 74.1177 98 59.4879C98 44.858 82.9985 33 64.4968 33Z" fill="white"/>
</svg>
