<svg width="128" height="128" viewBox="0 0 128 128" fill="none" xmlns="http://www.w3.org/2000/svg">
<path d="M92.1206 83.1192H85.2345V52.8702L64.5299 65.9305L43.8253 52.8702V83.1192H36.9126V41.8807H41.0363L64.5034 56.3172L87.9637 41.8807H92.094V83.1192H92.1206ZM92.1206 35H36.9126C35.081 35.0017 33.3248 35.727 32.029 37.0168C30.7332 38.3067 30.0035 40.0558 30 41.8807V83.1192C30.0053 84.9436 30.7355 86.6917 32.0309 87.9812C33.3264 89.2706 35.0815 89.9965 36.9126 90H92.094C93.924 89.9948 95.6775 89.2681 96.9715 87.9788C98.2655 86.6895 98.9947 84.9425 99 83.1192V41.8807C98.9965 40.0569 98.2678 38.3088 96.9734 37.0192C95.6791 35.7295 93.9245 35.0035 92.094 35H92.1206Z" fill="white"/>
</svg>
