<svg width="182" height="182" viewBox="0 0 182 182" fill="none" xmlns="http://www.w3.org/2000/svg">
<rect x="35.5245" width="150" height="150" rx="75" transform="rotate(13.6995 35.5245 0)" fill="#BDFF00"/>
<path d="M73.7661 34.8696L127.427 47.9504" stroke="black" stroke-width="11.6279"/>
<rect x="0.367361" y="0.604191" width="3.9339" height="3.9339" transform="matrix(0.23683 -0.971551 -0.971551 -0.23683 74.3181 43.4621)" fill="#BDFF00" stroke="black"/>
<rect x="0.367361" y="0.604191" width="3.9339" height="3.9339" transform="matrix(0.23683 -0.971551 -0.971551 -0.23683 77.1046 32.0307)" fill="#BDFF00" stroke="black"/>
<path d="M63.2992 77.8081L116.96 90.8888" stroke="black" stroke-width="11.6279"/>
<path d="M58.4799 97.5784L112.141 110.659" stroke="black" stroke-width="11.6279"/>
<path d="M50.2184 131.47L103.88 144.55" stroke="black" stroke-width="11.6279"/>
<path d="M112.168 120.412L52.7626 118.8" stroke="black" stroke-width="11.6279"/>
<rect x="100.984" y="146.921" width="2.9339" height="2.9339" transform="rotate(-76.3005 100.984 146.921)" fill="black"/>
<rect x="99.5939" y="152.624" width="2.9339" height="2.9339" transform="rotate(-76.3005 99.5939 152.624)" fill="black"/>
<rect x="98.1328" y="146.226" width="2.9339" height="2.9339" transform="rotate(-76.3005 98.1328 146.226)" fill="#BDFF00"/>
<rect x="96.7429" y="151.928" width="2.9339" height="2.9339" transform="rotate(-76.3005 96.7429 151.928)" fill="#BDFF00"/>
<rect x="104.53" y="144.765" width="2.9339" height="2.9339" transform="rotate(-76.3005 104.53 144.765)" fill="black"/>
<rect x="103.14" y="150.467" width="2.9339" height="2.9339" transform="rotate(-76.3005 103.14 150.467)" fill="black"/>
<rect x="101.679" y="144.07" width="2.9339" height="2.9339" transform="rotate(-76.3005 101.679 144.07)" fill="#BDFF00"/>
<rect x="100.289" y="149.772" width="2.9339" height="2.9339" transform="rotate(-76.3005 100.289 149.772)" fill="#BDFF00"/>
<rect x="102.374" y="141.219" width="2.9339" height="2.9339" transform="rotate(-76.3005 102.374 141.219)" fill="black"/>
<rect x="114.07" y="93.2388" width="2.9339" height="2.9339" transform="rotate(-76.3005 114.07 93.2388)" fill="black"/>
<rect x="112.68" y="98.9412" width="2.9339" height="2.9339" transform="rotate(-76.3005 112.68 98.9412)" fill="black"/>
<rect x="111.219" y="92.5439" width="2.9339" height="2.9339" transform="rotate(-76.3005 111.219 92.5439)" fill="#BDFF00"/>
<rect x="109.829" y="98.2463" width="2.9339" height="2.9339" transform="rotate(-76.3005 109.829 98.2463)" fill="#BDFF00"/>
<rect x="117.616" y="91.083" width="2.9339" height="2.9339" transform="rotate(-76.3005 117.616 91.083)" fill="black"/>
<rect x="116.226" y="96.7849" width="2.9339" height="2.9339" transform="rotate(-76.3005 116.226 96.7849)" fill="black"/>
<rect x="114.765" y="90.3879" width="2.9339" height="2.9339" transform="rotate(-76.3005 114.765 90.3879)" fill="#BDFF00"/>
<rect x="113.375" y="96.0898" width="2.9339" height="2.9339" transform="rotate(-76.3005 113.375 96.0898)" fill="#BDFF00"/>
<rect x="115.46" y="87.5366" width="2.9339" height="2.9339" transform="rotate(-76.3005 115.46 87.5366)" fill="black"/>
<rect width="2.9339" height="2.9339" transform="matrix(-0.23683 0.971551 0.971551 0.23683 125.27 44.4038)" fill="black"/>
<rect width="2.9339" height="2.9339" transform="matrix(-0.23683 0.971551 0.971551 0.23683 126.66 38.7014)" fill="black"/>
<rect width="2.9339" height="2.9339" transform="matrix(-0.23683 0.971551 0.971551 0.23683 122.419 43.709)" fill="#BDFF00"/>
<rect width="2.9339" height="2.9339" transform="matrix(-0.23683 0.971551 0.971551 0.23683 123.809 38.0066)" fill="#BDFF00"/>
<rect width="2.9339" height="2.9339" transform="matrix(-0.23683 0.971551 0.971551 0.23683 127.426 47.9497)" fill="black"/>
<rect width="2.9339" height="2.9339" transform="matrix(-0.23683 0.971551 0.971551 0.23683 128.816 42.248)" fill="black"/>
<rect width="2.9339" height="2.9339" transform="matrix(-0.23683 0.971551 0.971551 0.23683 124.575 47.2546)" fill="#BDFF00"/>
<rect width="2.9339" height="2.9339" transform="matrix(-0.23683 0.971551 0.971551 0.23683 125.965 41.553)" fill="#BDFF00"/>
<rect width="2.9339" height="2.9339" transform="matrix(-0.23683 0.971551 0.971551 0.23683 123.88 50.1062)" fill="black"/>
<rect x="112.801" y="110.834" width="2.9339" height="2.9339" transform="rotate(103.7 112.801 110.834)" fill="black"/>
<rect x="114.191" y="105.132" width="2.9339" height="2.9339" transform="rotate(103.7 114.191 105.132)" fill="black"/>
<rect x="115.652" y="111.529" width="2.9339" height="2.9339" transform="rotate(103.7 115.652 111.529)" fill="#BDFF00"/>
<rect x="114.262" y="117.231" width="2.9339" height="2.9339" transform="rotate(103.7 114.262 117.231)" fill="#BDFF00"/>
<rect x="112.872" y="122.933" width="2.9339" height="2.9339" transform="rotate(103.7 112.872 122.933)" fill="#BDFF00"/>
<rect x="117.042" y="105.827" width="2.9339" height="2.9339" transform="rotate(103.7 117.042 105.827)" fill="#BDFF00"/>
<rect x="109.255" y="112.99" width="2.9339" height="2.9339" transform="rotate(103.7 109.255 112.99)" fill="black"/>
<rect x="110.645" y="107.288" width="2.9339" height="2.9339" transform="rotate(103.7 110.645 107.288)" fill="black"/>
<rect x="112.106" y="113.685" width="2.9339" height="2.9339" transform="rotate(103.7 112.106 113.685)" fill="#BDFF00"/>
<rect x="113.496" y="107.983" width="2.9339" height="2.9339" transform="rotate(103.7 113.496 107.983)" fill="#BDFF00"/>
<rect x="111.411" y="116.536" width="2.9339" height="2.9339" transform="rotate(103.7 111.411 116.536)" fill="black"/>
<rect x="114.958" y="114.379" width="2.9339" height="2.9339" transform="rotate(103.7 114.958 114.379)" fill="black"/>
<rect x="113.568" y="120.082" width="2.9339" height="2.9339" transform="rotate(103.7 113.568 120.082)" fill="black"/>
<rect x="112.178" y="125.783" width="2.9339" height="2.9339" transform="rotate(103.7 112.178 125.783)" fill="black"/>
<rect x="110.021" y="122.236" width="2.9339" height="2.9339" transform="rotate(103.7 110.021 122.236)" fill="black"/>
<path d="M124.701 55.6201L112.144 81.3509" stroke="black" stroke-width="11.6279"/>
<rect x="129.654" y="63.5957" width="2.9339" height="2.9339" transform="rotate(103.7 129.654 63.5957)" fill="black"/>
<rect x="131.044" y="57.8933" width="2.9339" height="2.9339" transform="rotate(103.7 131.044 57.8933)" fill="black"/>
<rect x="125.412" y="68.6028" width="2.9339" height="2.9339" transform="rotate(103.7 125.412 68.6028)" fill="#BDFF00"/>
<rect x="124.022" y="74.3042" width="2.9339" height="2.9339" transform="rotate(103.7 124.022 74.3042)" fill="#BDFF00"/>
<rect x="120.477" y="76.46" width="2.9339" height="2.9339" transform="rotate(103.7 120.477 76.46)" fill="#BDFF00"/>
<rect x="119.088" y="82.1609" width="2.9339" height="2.9339" transform="rotate(103.7 119.088 82.1609)" fill="#BDFF00"/>
<rect x="131.737" y="55.0413" width="2.9339" height="2.9339" transform="rotate(103.7 131.737 55.0413)" fill="#BDFF00"/>
<rect x="128.192" y="57.198" width="2.9339" height="2.9339" transform="rotate(103.7 128.192 57.198)" fill="#BDFF00"/>
<rect x="126.036" y="53.6516" width="2.9339" height="2.9339" transform="rotate(103.7 126.036 53.6516)" fill="#BDFF00"/>
<rect x="126.108" y="65.7517" width="2.9339" height="2.9339" transform="rotate(103.7 126.108 65.7517)" fill="black"/>
<rect x="127.498" y="60.0498" width="2.9339" height="2.9339" transform="rotate(103.7 127.498 60.0498)" fill="black"/>
<rect x="128.888" y="54.3467" width="2.9339" height="2.9339" transform="rotate(103.7 128.888 54.3467)" fill="black"/>
<rect x="123.184" y="52.9565" width="2.9339" height="2.9339" transform="rotate(103.7 123.184 52.9565)" fill="black"/>
<rect x="125.34" y="56.5039" width="2.9339" height="2.9339" transform="rotate(103.7 125.34 56.5039)" fill="black"/>
<rect x="128.959" y="66.4465" width="2.9339" height="2.9339" transform="rotate(103.7 128.959 66.4465)" fill="#BDFF00"/>
<rect x="130.349" y="60.7449" width="2.9339" height="2.9339" transform="rotate(103.7 130.349 60.7449)" fill="#BDFF00"/>
<rect x="128.264" y="69.2979" width="2.9339" height="2.9339" transform="rotate(103.7 128.264 69.2979)" fill="black"/>
<rect x="131.811" y="67.1411" width="2.9339" height="2.9339" transform="rotate(103.7 131.811 67.1411)" fill="black"/>
<rect x="124.717" y="71.4531" width="2.9339" height="2.9339" transform="rotate(103.7 124.717 71.4531)" fill="black"/>
<rect x="126.875" y="75.0002" width="2.9339" height="2.9339" transform="rotate(103.7 126.875 75.0002)" fill="black"/>
<rect x="123.327" y="77.1545" width="2.9339" height="2.9339" transform="rotate(103.7 123.327 77.1545)" fill="black"/>
<rect x="121.171" y="73.6094" width="2.9339" height="2.9339" transform="rotate(103.7 121.171 73.6094)" fill="black"/>
<rect x="119.781" y="79.3101" width="2.9339" height="2.9339" transform="rotate(103.7 119.781 79.3101)" fill="black"/>
<rect x="116.237" y="81.4658" width="2.9339" height="2.9339" transform="rotate(103.7 116.237 81.4658)" fill="black"/>
<rect x="0.367361" y="0.604191" width="3.9339" height="3.9339" transform="matrix(0.23683 -0.971551 -0.971551 -0.23683 66.6264 75.0158)" fill="#BDFF00" stroke="black"/>
<rect x="0.367361" y="0.604191" width="3.9339" height="3.9339" transform="matrix(0.23683 -0.971551 -0.971551 -0.23683 63.8626 86.3539)" fill="#BDFF00" stroke="black"/>
<rect x="0.367361" y="0.604191" width="3.9339" height="3.9339" transform="matrix(0.23683 -0.971551 -0.971551 -0.23683 61.812 94.7661)" fill="#BDFF00" stroke="black"/>
<rect x="0.367361" y="0.604191" width="3.9339" height="3.9339" transform="matrix(0.23683 -0.971551 -0.971551 -0.23683 59.0324 106.169)" fill="#BDFF00" stroke="black"/>
<rect x="0.367361" y="0.604191" width="3.9339" height="3.9339" transform="matrix(0.23683 -0.971551 -0.971551 -0.23683 54.5591 116.092)" fill="#BDFF00" stroke="black"/>
<rect x="0.367361" y="0.604191" width="3.9339" height="3.9339" transform="matrix(0.23683 -0.971551 -0.971551 -0.23683 53.6926 128.074)" fill="#BDFF00" stroke="black"/>
<rect x="0.367361" y="0.604191" width="3.9339" height="3.9339" transform="matrix(0.23683 -0.971551 -0.971551 -0.23683 50.8301 139.817)" fill="#BDFF00" stroke="black"/>
<rect x="0.367361" y="0.604191" width="3.9339" height="3.9339" transform="matrix(0.23683 -0.971551 -0.971551 -0.23683 109.087 81.4985)" fill="#BDFF00" stroke="black"/>
<rect x="0.367361" y="0.604191" width="3.9339" height="3.9339" transform="matrix(0.23683 -0.971551 -0.971551 -0.23683 122.276 55.1525)" fill="#BDFF00" stroke="black"/>
</svg>
