<svg width="151" height="151" viewBox="0 0 151 151" fill="none" xmlns="http://www.w3.org/2000/svg">
<rect x="0.525269" y="0.170715" width="150" height="150" rx="75" fill="#BDFF00"/>
<path d="M98.2287 39.0225L115.409 39.0225" stroke="black" stroke-width="4.71592"/>
<path d="M31.4712 42.9933L93.8819 42.9933" stroke="black" stroke-width="12.2095"/>
<path d="M89.0311 105.146C85.0089 104.936 50.2469 76.1465 40.77 83.5709L39.2754 80.5682C48.8094 69.4766 78.1067 86.7302 91.5636 96.7434C91.5636 96.7434 94.7345 99.273 93.6591 102.875C92.1805 106.571 89.0311 105.146 89.0311 105.146Z" fill="black" stroke="black" stroke-width="4"/>
<path d="M52.1059 100.62C63.6875 96.1652 69.042 59.9093 70.2716 42.3381H76.6832C74.4189 86.7283 59.3548 101.708 52.1059 103.648C38.402 108.69 27.359 94.4962 39.2766 80.6317L40.7879 83.5435C31.3109 90.9679 37.6289 106.188 52.1059 100.62Z" fill="black" stroke="black" stroke-width="4"/>
<path d="M109.364 38.4886L109.364 113.149" stroke="black" stroke-width="12.2095"/>
<path d="M113.263 54.0899L121.104 54.0899" stroke="black" stroke-width="12.2095"/>
</svg>
