<svg width="103" height="54" viewBox="0 0 103 54" fill="none" xmlns="http://www.w3.org/2000/svg">
<path d="M51.7647 20.7855C50.2704 20.7301 37.3557 13.1452 33.8348 15.1012L33.2795 14.3102C36.8216 11.388 47.7061 15.9336 52.7055 18.5717C52.7055 18.5717 53.8836 19.2381 53.4841 20.187C52.9347 21.1608 51.7647 20.7855 51.7647 20.7855Z" fill="black" stroke="white" stroke-width="0.677032"/>
<path d="M38.0466 19.5932C42.3494 18.4197 44.3387 8.86765 44.7955 4.23834H47.1776C46.3363 15.9334 40.7398 19.8798 38.0466 20.3912C32.9554 21.7194 28.859 17.956 33.2865 14.3032L33.8418 15.0943C30.321 17.0504 32.6682 21.0602 38.0466 19.5932Z" fill="black" stroke="white" stroke-width="0.677032"/>
<path d="M0.580322 3.25378H26.3075" stroke="white" stroke-width="5.41625"/>
<path d="M0.580322 24.9188H26.3075" stroke="white" stroke-width="5.41625"/>
<path d="M0.580322 33.0432H36.6086" stroke="white" stroke-width="5.41625"/>
<path d="M69.6372 3.25378H89.9482" stroke="white" stroke-width="5.41625"/>
<path d="M6.19165 50.6066L37.7519 50.6066" stroke="white" stroke-width="5.41625"/>
<path d="M69.6372 19.5025H89.9482" stroke="white" stroke-width="5.41625"/>
<path d="M31.823 3.51843L54.1013 3.58851" stroke="white" stroke-width="5.41625"/>
<path d="M25.5215 7.16144L22.4105 20.2219" stroke="white" stroke-width="5.41625"/>
<path d="M36.8459 38.4594L5.47474 45.2843" stroke="white" stroke-width="5.41625"/>
<path d="M89.364 8.36328L70.1836 14.8278" stroke="white" stroke-width="5.41625"/>
<path d="M60.1589 1.89966V20.8565" stroke="white" stroke-width="5.41625"/>
<path d="M95.3647 1.89966L95.3647 20.8565" stroke="white" stroke-width="5.41625"/>
<path d="M59.4333 9.69427L66.3178 9.55802" stroke="white" stroke-width="5.41625"/>
<path d="M95.2507 10.5266L102.135 10.3903" stroke="white" stroke-width="5.41625"/>
<circle cx="84.5321" cy="38.4595" r="10.8325" fill="black" stroke="white" stroke-width="5.41625"/>
</svg>
