<svg width="289" height="155" viewBox="0 0 289 155" fill="none" xmlns="http://www.w3.org/2000/svg">
<path d="M134.699 46.9895C131.271 46.8625 101.645 29.463 93.5682 33.95L92.2944 32.1353C100.42 25.4318 125.388 35.8594 136.857 41.9111C136.857 41.9111 139.559 43.4399 138.643 45.6166C137.383 47.8505 134.699 46.9895 134.699 46.9895Z" fill="black" stroke="black" stroke-width="1.55309"/>
<path d="M103.233 44.2574C113.104 41.5652 117.667 19.6533 118.715 9.03378H124.179C122.25 35.8619 109.411 44.9148 103.233 46.0878C91.5541 49.1348 82.157 40.5016 92.3137 32.1223L93.5875 33.9371C85.5108 38.4241 90.8953 47.6226 103.233 44.2574Z" fill="black" stroke="black" stroke-width="1.55309"/>
<path d="M17.2859 6.77313H76.3032" stroke="black" stroke-width="12.4247"/>
<path d="M3.06323 56.4721L76.3032 56.4721" stroke="black" stroke-width="12.4247"/>
<path d="M17.2859 75.1096H99.9336" stroke="black" stroke-width="12.4247"/>
<path d="M175.701 6.77313H222.293" stroke="black" stroke-width="12.4247"/>
<path d="M30.1587 115.399L102.557 115.399" stroke="black" stroke-width="12.4247"/>
<path d="M175.701 44.048H222.293" stroke="black" stroke-width="12.4247"/>
<path d="M88.9602 7.37994L140.066 7.54069" stroke="black" stroke-width="12.4247"/>
<path d="M74.4963 15.7368L67.3598 45.697" stroke="black" stroke-width="12.4247"/>
<path d="M100.472 87.5343L28.5079 103.19" stroke="black" stroke-width="12.4247"/>
<path d="M220.959 18.4944L176.96 33.3239" stroke="black" stroke-width="12.4247"/>
<path d="M153.955 3.66742V47.1539" stroke="black" stroke-width="12.4247"/>
<path d="M234.715 3.66742L234.715 47.1539" stroke="black" stroke-width="12.4247"/>
<path d="M152.293 21.5497L168.086 21.2371" stroke="black" stroke-width="12.4247"/>
<path d="M234.449 23.4569L250.242 23.1443" stroke="black" stroke-width="12.4247"/>
<path d="M14.3991 6.77289L17.2859 9.65964L20.1726 6.77289L17.2859 3.88614L14.3991 6.77289ZM79.19 6.77289L76.3032 3.88614L73.4165 6.77289L76.3032 9.65964L79.19 6.77289ZM17.2859 7.27289H76.3032V6.27289H17.2859V7.27289Z" fill="#9580F6"/>
<path d="M0.176481 56.4721L3.06323 59.3589L5.94998 56.4721L3.06323 53.5854L0.176481 56.4721ZM79.19 56.4721L76.3032 53.5854L73.4165 56.4721L76.3032 59.3589L79.19 56.4721ZM3.06323 56.9721L76.3032 56.9721L76.3032 55.9721L3.06323 55.9721L3.06323 56.9721Z" fill="#9580F6"/>
<path d="M14.3991 75.1098L17.2859 77.9966L20.1726 75.1098L17.2859 72.2231L14.3991 75.1098ZM102.82 75.1098L99.9336 72.2231L97.0469 75.1098L99.9336 77.9966L102.82 75.1098ZM17.2859 75.6098H99.9336V74.6098H17.2859V75.6098Z" fill="#9580F6"/>
<path d="M172.813 6.77289L175.7 9.65964L178.587 6.77289L175.7 3.88614L172.813 6.77289ZM225.179 6.77289L222.293 3.88614L219.406 6.77289L222.293 9.65964L225.179 6.77289ZM175.7 7.27289H222.293V6.27289H175.7V7.27289Z" fill="#9580F6"/>
<path d="M27.2702 115.399L30.157 118.286L33.0437 115.399L30.157 112.512L27.2702 115.399ZM105.442 115.399L102.555 112.512L99.6683 115.399L102.555 118.286L105.442 115.399ZM30.157 115.899L102.555 115.899L102.555 114.899L30.157 114.899L30.157 115.899Z" fill="#9580F6"/>
<path d="M172.813 44.0483L175.7 46.935L178.587 44.0483L175.7 41.1615L172.813 44.0483ZM225.179 44.0483L222.293 41.1615L219.406 44.0483L222.293 46.935L225.179 44.0483ZM175.7 44.5483H222.293V43.5483H175.7V44.5483Z" fill="#9580F6"/>
<path d="M86.0749 7.37123L88.95 10.267L91.8484 7.38939L88.9734 4.49358L86.0749 7.37123ZM142.954 7.55014L140.079 4.65433L137.181 7.53198L140.056 10.4278L142.954 7.55014ZM88.9596 7.88031L140.065 8.04105L140.069 7.04106L88.9637 6.88031L88.9596 7.88031Z" fill="#9580F6"/>
<path d="M75.1657 12.9286L71.6886 15.0678L73.8279 18.5449L77.305 16.4057L75.1657 12.9286ZM66.6914 48.5051L70.1685 46.3659L68.0292 42.8888L64.5521 45.028L66.6914 48.5051ZM74.0104 15.6209L66.8739 45.5811L67.8467 45.8128L74.9832 15.8526L74.0104 15.6209Z" fill="#9580F6"/>
<path d="M103.294 86.9209L99.8597 84.7138L97.6526 88.1483L101.087 90.3554L103.294 86.9209ZM25.6881 103.804L29.1225 106.011L31.3297 102.577L27.8952 100.37L25.6881 103.804ZM100.367 87.046L28.4026 102.702L28.6152 103.679L100.58 88.0232L100.367 87.046Z" fill="#9580F6"/>
<path d="M223.693 17.5726L220.177 15.7154L218.222 19.4166L221.738 21.2738L223.693 17.5726ZM174.223 34.246L177.739 36.1032L179.694 32.4021L176.178 30.5449L174.223 34.246ZM220.823 18.0132L176.823 32.8427L177.094 33.8054L221.093 18.9759L220.823 18.0132Z" fill="#9580F6"/>
<path d="M153.954 0.780668L151.067 3.66742L153.954 6.55417L156.841 3.66742L153.954 0.780668ZM153.954 50.0406L156.841 47.1539L153.954 44.2671L151.067 47.1539L153.954 50.0406ZM153.454 3.66742V47.1539H154.454V3.66742H153.454Z" fill="#9580F6"/>
<path d="M234.716 0.780668L231.829 3.66742L234.716 6.55417L237.602 3.66742L234.716 0.780668ZM234.716 50.0406L237.602 47.1539L234.716 44.2671L231.829 47.1539L234.716 50.0406ZM234.216 3.66742L234.216 47.1539L235.216 47.1539L235.216 3.66742L234.216 3.66742Z" fill="#9580F6"/>
<path d="M151.067 21.2367L153.954 24.1234L156.841 21.2367L153.954 18.3499L151.067 21.2367ZM170.973 21.2367L168.086 18.3499L165.2 21.2367L168.086 24.1234L170.973 21.2367ZM153.954 21.7367L168.086 21.7367L168.086 20.7367L153.954 20.7367L153.954 21.7367Z" fill="#9580F6"/>
<path d="M231.564 23.5136L234.524 26.3423L237.336 23.3994L234.376 20.5707L231.564 23.5136ZM253.129 23.0868L250.169 20.2581L247.357 23.201L250.316 26.0297L253.129 23.0868ZM234.463 23.9563L250.255 23.6438L250.23 22.6441L234.437 22.9566L234.463 23.9563Z" fill="#9580F6"/>
<circle cx="209.87" cy="87.5335" r="24.8494" fill="black" stroke="black" stroke-width="12.4247"/>
<path d="M223.114 38.9221C213.606 41.4168 211.793 43.4391 209.557 54.0444C207.321 43.4391 205.508 41.4163 196 38.9221C205.521 36.3355 207.321 34.4051 209.557 23.7998C211.793 34.4051 213.607 36.4274 223.114 38.9221Z" fill="white"/>
<g filter="url(#filter0_d_1175_7125)">
<path d="M241.131 140.658L232.33 94.89L271.057 117.774L251.693 123.055L241.131 140.658Z" fill="#907CFF"/>
<path d="M239.403 140.991L240.272 145.512L242.641 141.564L252.839 124.567L271.52 119.472L275.537 118.377L271.952 116.259L233.225 93.3745L229.864 91.3882L230.601 95.2225L239.403 140.991Z" stroke="white" stroke-width="3.52063" stroke-linecap="square"/>
</g>
<defs>
<filter id="filter0_d_1175_7125" x="224.398" y="85.8863" width="58.6191" height="68.4788" filterUnits="userSpaceOnUse" color-interpolation-filters="sRGB">
<feFlood flood-opacity="0" result="BackgroundImageFix"/>
<feColorMatrix in="SourceAlpha" type="matrix" values="0 0 0 0 0 0 0 0 0 0 0 0 0 0 0 0 0 0 127 0" result="hardAlpha"/>
<feOffset dy="1"/>
<feGaussianBlur stdDeviation="1.5"/>
<feColorMatrix type="matrix" values="0 0 0 0 0 0 0 0 0 0 0 0 0 0 0 0 0 0 0.35 0"/>
<feBlend mode="normal" in2="BackgroundImageFix" result="effect1_dropShadow_1175_7125"/>
<feBlend mode="normal" in="SourceGraphic" in2="effect1_dropShadow_1175_7125" result="shape"/>
</filter>
</defs>
</svg>
