<svg width="128" height="128" viewBox="0 0 128 128" fill="none" xmlns="http://www.w3.org/2000/svg">
<path d="M63.5408 101.91C61.2119 101.91 58.883 101.976 56.5614 101.91C53.8579 101.807 51.1616 101.58 48.4801 101.389C46.7022 101.264 44.9316 101.125 43.1537 100.956C42.5858 100.897 42.0233 100.794 41.4713 100.648C40.7954 100.486 40.1415 100.2 39.4583 100.097C36.3506 99.6278 34.0511 97.6685 31.6708 95.8927C31.1199 95.33 30.6276 94.7129 30.2015 94.0509C28.5916 92.1242 27.4567 89.8472 26.8881 87.4028C26.4134 85.5948 26.1011 83.7481 25.9551 81.8847C25.742 79.0669 25.3894 76.2638 25.2204 73.4387C25.0588 70.1073 25.0661 66.7612 25 63.4224C25 62.5639 25 61.6981 25 60.8396C25.1102 57.9484 25.213 55.0573 25.36 52.1661C25.4628 50.1042 25.6539 48.0495 25.7641 45.9876C26.0359 42.6364 26.7472 39.3356 27.8799 36.1695C29.0962 34.3543 30.4184 32.6121 31.8398 30.9522C32.9859 29.7488 34.5507 28.9636 35.9392 28.017C36.0869 27.8978 36.2532 27.8036 36.4315 27.7382C38.5106 27.1658 40.5897 26.5789 42.6835 26.0579C43.4096 25.9124 44.1471 25.8313 44.8875 25.8157C46.8564 25.6689 48.8254 25.5736 50.7649 25.4048C57.252 24.8471 63.7612 25.0159 70.2557 25.0526C72.0997 25.0526 73.929 25.2653 75.7804 25.3827C76.9926 25.4561 78.1974 25.5075 79.4023 25.6176C81.211 25.7099 83.0135 25.8985 84.8022 26.1826C86.7564 26.5568 88.6592 27.1952 90.584 27.7455C90.8504 27.8499 91.0984 27.9961 91.3187 28.1785C92.5456 29.0371 93.7798 29.8809 94.992 30.7687C95.3961 31.0758 95.7591 31.4334 96.072 31.8328C96.5862 32.4785 97.0197 33.1903 97.5413 33.8287C98.6551 35.1395 99.4273 36.7048 99.7894 38.3855C99.9437 39.1193 100.304 39.8532 100.465 40.6603C100.715 41.8711 100.921 43.0892 101.053 44.3293C101.281 46.3472 101.442 48.3724 101.619 50.3977C101.7 51.4103 101.802 52.4229 101.824 53.4429C101.905 58.6308 102.03 63.8188 101.993 68.9993C101.993 71.7951 101.67 74.5834 101.479 77.3718C101.354 79.1769 101.207 80.9821 101.068 82.7872C100.935 84.4941 100.59 86.1778 100.039 87.799C99.8408 88.3714 99.6865 88.9511 99.5249 89.5308C99.2811 90.5167 98.8304 91.4396 98.2025 92.2384C97.4678 93.185 96.7993 94.2123 96.0646 95.1736C95.7525 95.5734 95.3923 95.9332 94.992 96.245C94.5218 96.6192 93.9561 96.8907 93.5227 97.2943C90.8779 99.6571 87.5204 100.229 84.2511 100.963C82.5888 101.231 80.9095 101.38 79.226 101.411C76.5224 101.602 73.8262 101.807 71.1446 101.946C69.521 102.027 67.89 101.991 66.2664 101.998H63.5408V101.91ZM95.9764 63.4224C95.903 60.6487 95.8883 57.8163 95.734 54.9838C95.5724 51.9753 95.2492 48.9742 95.0508 45.9656C94.9776 43.8716 94.5963 41.7997 93.9194 39.8164C93.7979 39.3257 93.6205 38.8505 93.3904 38.4002C92.3926 36.7757 91.0964 35.3541 89.5702 34.2103C87.8866 33.1268 85.981 32.4347 83.994 32.185C81.79 31.8401 79.586 31.7374 77.382 31.576C74.4947 31.3705 71.6075 31.0843 68.7202 31.0623C63.6804 31.0183 58.6479 31.1576 53.6154 31.2237C53.4832 31.2237 53.3583 31.2237 53.2334 31.2237C50.9485 31.3998 48.6637 31.5613 46.3862 31.7594C45.0559 31.8442 43.7315 32.0034 42.419 32.2363C40.219 32.6145 38.1526 33.5492 36.4168 34.9514C35.1371 36.0069 34.1146 37.3392 33.4267 38.8478C32.5663 40.9025 32.0811 43.0944 31.9941 45.3199C31.8765 47.1544 31.7075 48.9888 31.5973 50.8307C31.4577 53.1421 31.3402 55.4609 31.2227 57.7796C31.2227 58.3813 31.1786 58.983 31.1786 59.5921C31.1786 63.694 31.1786 67.8032 31.2961 71.9051C31.399 74.9137 31.7736 77.9149 31.972 80.9234C32.0459 83.0198 32.4271 85.0939 33.1034 87.0799C33.2219 87.5692 33.3995 88.0423 33.6324 88.4888C34.6451 90.1416 35.9671 91.5841 37.5261 92.7374C39.192 93.7918 41.0715 94.4634 43.0288 94.704C45.2328 95.0488 47.4368 95.1516 49.6409 95.3131C52.5795 95.5185 55.5182 95.79 58.4055 95.834C62.3874 95.8927 66.3766 95.8341 70.3585 95.68C73.5984 95.5772 76.831 95.291 80.0709 95.1296C82.6435 95.0469 85.1903 94.5896 87.6306 93.7721C87.9292 93.6707 88.2152 93.5352 88.4829 93.3685C90.2932 92.3555 91.827 90.9143 92.9496 89.1712C93.3393 88.5226 93.6688 87.8398 93.9341 87.1313C94.8304 84.7758 94.9553 82.2956 95.1977 79.8447C95.4695 77.093 95.6385 74.334 95.7708 71.5749C95.903 68.8159 95.903 66.1888 95.9764 63.4224Z" fill="white"/>
<path d="M47.4767 82.6302C46.8467 82.6302 46.2166 82.6302 45.5938 82.6302C45.0869 82.6302 44.9276 82.3786 45.029 81.8904C45.0647 81.4881 45.2241 81.1077 45.4842 80.8034C45.7443 80.4992 46.0919 80.2868 46.4773 80.1964C47.0277 80.0707 47.5564 79.8413 48.1068 79.7451C48.6571 79.6489 48.7585 79.3975 48.7658 78.9018C48.7658 77.5185 48.8671 76.1425 48.9033 74.7665C48.983 71.4302 49.0482 68.1088 49.1351 64.7577C49.2365 60.8739 49.3596 56.9975 49.461 53.1138C49.461 51.9598 49.461 50.8058 49.5117 49.6444C49.5117 49.2005 49.4175 48.9046 48.9178 48.9046C48.1068 48.8232 47.3102 48.6456 46.4991 48.5865C46.0211 48.5421 45.898 48.3128 45.9487 47.9059C46.1297 46.2637 46.9481 45.1688 48.7875 45.0357C50.6269 44.9025 52.5533 44.9025 54.4361 44.8211C55.689 44.7767 56.9491 44.7175 58.2019 44.6288C58.446 44.59 58.6957 44.6351 58.9119 44.7569C59.1282 44.8787 59.2988 45.0705 59.3969 45.302C63.6309 52.9067 67.8795 60.504 72.1425 68.0939C72.3489 68.3731 72.5765 68.6354 72.8233 68.8781C72.8233 68.5304 72.9029 68.1901 72.9174 67.8424L73.2433 57.7447C73.2433 56.9457 73.2433 56.1394 73.294 55.3405C73.3519 53.1212 73.4171 50.9759 73.4678 48.7936C73.4678 47.8615 73.4678 47.869 72.5553 47.7358C71.7804 47.6175 71.0128 47.4621 70.2379 47.3585C69.912 47.3585 69.8324 47.181 69.8251 46.8629C69.7975 46.2987 69.9653 45.7426 70.299 45.2921C70.6328 44.8417 71.1111 44.5257 71.6501 44.3995C72.014 44.2948 72.3879 44.2303 72.7653 44.2072C75.4931 44.1233 78.2257 44.0542 80.9631 44C81.948 44 82.1363 44.2589 81.9191 45.2946C81.8926 45.7322 81.7086 46.1444 81.4024 46.4517C81.0962 46.759 80.6895 46.9398 80.2607 46.959C79.7175 47.07 78.9861 47.0108 78.6747 47.3511C78.3633 47.6914 78.4502 48.4238 78.3778 48.9934C78.3438 49.2782 78.3245 49.5646 78.3199 49.8515C78.2402 53.4467 78.175 57.0419 78.0881 60.6372C78.0012 64.2324 77.8709 67.7537 77.7622 71.3119C77.7622 72.0517 77.7622 72.8506 77.7188 73.62C77.656 76.0316 77.5933 78.4383 77.5305 80.84C77.5305 81.1581 77.5305 81.4762 77.1756 81.6537C75.7822 82.4614 74.2211 82.9202 72.6205 82.9926C72.021 83.0308 71.4214 82.9202 70.8728 82.6703C70.3243 82.4204 69.8431 82.0386 69.4703 81.5575C68.6837 80.4892 67.9583 79.3752 67.2977 78.2212C63.3654 71.0678 59.4837 63.8847 55.5804 56.7238C55.3594 56.3618 55.1176 56.0135 54.8562 55.6808C54.82 56.1173 54.762 56.5537 54.7548 56.9975C54.6751 60.4596 54.6317 63.9217 54.5375 67.3541C54.4506 70.6904 54.3058 74.012 54.1972 77.3557C54.1972 78.4209 54.1972 78.421 55.1893 78.7169C56.1815 79.0128 57.0577 79.2495 57.9847 79.538C58.5858 79.7304 58.6147 79.8043 58.3685 80.4109C58.2373 80.8257 57.9982 81.1962 57.6767 81.4829C57.3553 81.7695 56.9636 81.9616 56.5436 82.0384C55.7181 82.2007 54.8837 82.3118 54.0451 82.3713C51.8725 82.4674 49.7 82.5044 47.5274 82.5636L47.4767 82.6302Z" fill="white"/>
</svg>
