<svg width="151" height="151" viewBox="0 0 151 151" fill="none" xmlns="http://www.w3.org/2000/svg">
<rect x="0.00585938" y="0.00579834" width="150" height="150" rx="75" fill="black"/>
<path d="M97.7095 38.8575L114.889 38.8575" stroke="white" stroke-width="4.71592"/>
<path d="M30.9517 42.8284L93.3623 42.8284" stroke="white" stroke-width="12.2095"/>
<path d="M88.5116 104.981C84.4894 104.771 49.7274 75.9816 40.2505 83.406L38.7559 80.4033C48.2899 69.3117 77.5872 86.5653 91.0441 96.5785C91.0441 96.5785 94.215 99.1081 93.1396 102.71C91.661 106.406 88.5116 104.981 88.5116 104.981Z" fill="white" stroke="white" stroke-width="4"/>
<path d="M51.5865 100.455C63.1681 96.0003 68.5226 59.7444 69.7522 42.1732H76.1639C73.8995 86.5634 58.8355 101.543 51.5865 103.483C37.8826 108.525 26.8397 94.3313 38.7572 80.4668L40.2685 83.3786C30.7916 90.803 37.1095 106.023 51.5865 100.455Z" fill="white" stroke="white" stroke-width="4"/>
<path d="M108.845 38.3237L108.845 112.984" stroke="white" stroke-width="12.2095"/>
<path d="M112.743 53.9249L120.584 53.9249" stroke="white" stroke-width="12.2095"/>
</svg>
