<svg width="151" height="151" viewBox="0 0 151 151" fill="none" xmlns="http://www.w3.org/2000/svg">
<rect x="0.872559" y="0.872589" width="150" height="150" rx="75" fill="black"/>
<path d="M45.9282 34.7321H86.7009" stroke="white" stroke-width="10.8727"/>
<path d="M97.5737 29.3826L97.5737 70.0683" stroke="white" stroke-width="10.8727"/>
<path d="M97.3452 49.3316L111.165 49.0581" stroke="white" stroke-width="10.8727"/>
<path d="M69.1909 40.0127C77.2923 41.4221 80.4137 42.5995 82.779 47.7747C85.7358 54.2436 65.4669 49.2292 57.7327 47.4524C52.5606 46.2642 31.5434 48.8167 53.3878 64.2676C59.6777 67.3811 64.7542 68.6267 69.8661 68.7549C73.9925 68.8584 80.14 67.4318 82.4662 64.9968C84.7408 62.6158 84.7268 59.8177 82.3105 58.3641C79.8943 56.9105 77.4229 60.8278 74.6003 63.2824C68.7638 66.2925 61.2232 63.7116 58.0945 62.8684C51.4723 59.6908 46.1858 54.3306 47.4865 51.4857C48.9241 48.3416 55.7747 48.5989 58.7828 49.4999C65.7782 51.595 87.1108 58.8004 86.8454 47.4664C86.721 42.1516 86.7029 42.3837 86.7037 35.5381L69.1909 40.0127Z" fill="white"/>
<path d="M80.1666 126.717C77.8026 127.135 75.4026 127.255 73.0128 127.063C70.9276 126.986 68.8475 126.69 66.8191 126.168C63.8771 125.361 61.1105 123.961 58.6589 122.051C57.1362 120.794 56.362 118.208 55.7839 116.05C55.1749 113.805 55.5465 111.241 54.8497 109.05C54.3336 107.403 52.9451 105.871 51.66 104.625C49.3373 102.369 47.4895 97.8721 49.5076 94.2816C50.6793 92.2063 52.5271 91.6518 54.3181 90.724C56.2227 89.8291 58.0292 88.7255 59.717 87.4299C60.3828 86.8808 60.5892 85.404 60.6254 84.3334C60.708 81.7146 61.1415 79.1562 63.0151 77.4433C64.5274 75.9664 66.3391 74.8849 68.3159 74.2864C71.8773 73.4135 75.5523 72.7107 79.1653 72.7931C82.6751 72.8755 86.2158 73.8307 89.6482 74.7915C91.4495 75.368 93.1166 76.3288 94.5567 77.6135C97.3284 79.8974 99.2536 83.142 99.9968 86.782C100.652 89.8126 100.048 92.5192 99.6665 95.3082C99.4394 96.9553 98.1181 98.4486 97.7671 100.129C97.3542 102.127 96.9722 104.394 97.4626 106.289C98.7426 111.23 100.25 116.138 94.8819 121.057C93.5863 122.21 92.105 123.099 90.5101 123.687C87.6868 124.746 84.7809 125.543 81.9008 126.339C81.3279 126.498 80.7447 126.624 80.1666 126.717ZM73.3845 123.813C74.8348 123.95 76.2955 123.983 77.751 123.912C78.9588 123.906 80.1614 123.709 81.3176 123.33C83.9654 122.325 86.479 120.98 87.8571 117.9C88.8894 115.655 88.4662 110.845 86.8713 108.979C85.9474 107.842 85.3229 106.47 85.0545 104.993C84.7396 103.258 84.9719 101.413 84.9564 99.6235C84.9564 96.3294 86.9539 94.0345 88.6572 91.6792C89.5811 90.4 90.4224 85.7499 89.6894 84.2566C88.6984 82.1483 87.5475 80.2323 85.4106 79.3154C83.5577 78.5138 81.6892 77.3664 79.7795 77.2346C77.6117 77.0864 75.3561 77.7507 73.1986 78.3327C70.6644 79.0025 69.8644 82.4832 70.7418 84.7946C71.3612 86.3044 72.1147 87.7867 72.4296 89.3844C72.9457 91.9647 72.1354 94.1059 69.565 94.8745C66.9946 95.6431 64.3365 96.0494 61.8228 96.9333C60.9351 97.2463 60.1402 98.4047 59.6963 99.3764C59.3815 100.068 59.4021 101.402 59.8357 101.918C60.9299 103.236 62.2048 104.362 63.619 105.267C66.7727 107.255 66.6539 110.154 65.6836 113.113C65.2397 114.458 64.6513 115.858 64.6513 117.236C64.6513 119.75 67.7946 123.105 70.1689 123.44C71.2012 123.594 72.2851 123.703 73.3845 123.813Z" fill="white"/>
</svg>
